<svg width="79" height="73" viewBox="0 0 79 73" fill="none" xmlns="http://www.w3.org/2000/svg">
<g id="&#208;&#178;&#208;&#181;&#208;&#177;">
<path id="Vector" d="M24.6875 27.375C28.7708 27.375 32.0938 24.3044 32.0938 20.5312C32.0938 16.7581 28.7708 13.6875 24.6875 13.6875C20.6042 13.6875 17.2812 16.7581 17.2812 20.5312C17.2812 24.3044 20.6042 27.375 24.6875 27.375ZM24.6875 18.25C26.0478 18.25 27.1562 19.2743 27.1562 20.5312C27.1562 21.7882 26.0478 22.8125 24.6875 22.8125C23.3272 22.8125 22.2188 21.7882 22.2188 20.5312C22.2188 19.2743 23.3272 18.25 24.6875 18.25ZM69.125 4.5625H9.875C5.79169 4.5625 2.46875 7.63306 2.46875 11.4062V47.9062C2.46875 51.6794 5.79169 54.75 9.875 54.75H32.0938V63.875H24.6875C23.3248 63.875 22.2188 64.897 22.2188 66.1562C22.2188 67.4155 23.3248 68.4375 24.6875 68.4375H54.3125C55.6753 68.4375 56.7812 67.4155 56.7812 66.1562C56.7812 64.897 55.6753 63.875 54.3125 63.875H46.9062V54.75H69.125C73.2083 54.75 76.5312 51.6794 76.5312 47.9062V11.4062C76.5312 7.63306 73.2083 4.5625 69.125 4.5625ZM41.9688 63.875H37.0312V54.75H41.9688V63.875ZM41.9688 50.1875H9.875C8.51472 50.1875 7.40625 49.1632 7.40625 47.9062V43.3438H41.9688V50.1875ZM17.7034 38.7812C18.723 36.1259 21.4683 34.2188 24.6875 34.2188C27.9067 34.2188 30.652 36.1259 31.6716 38.7812H17.7034ZM41.9688 38.7812H36.7819C35.6339 33.5823 30.6495 29.6562 24.6875 29.6562C18.7255 29.6562 13.7411 33.5823 12.5931 38.7812H7.40625V11.4062C7.40625 10.1493 8.51472 9.125 9.875 9.125H41.9688V38.7812ZM71.5938 47.9062C71.5938 49.1632 70.4853 50.1875 69.125 50.1875H46.9062V9.125H69.125C70.4853 9.125 71.5938 10.1493 71.5938 11.4062V47.9062ZM66.6562 15.9688C66.6562 17.228 65.5503 18.25 64.1875 18.25H54.3125C52.9497 18.25 51.8438 17.228 51.8438 15.9688C51.8438 14.7095 52.9497 13.6875 54.3125 13.6875H64.1875C65.5503 13.6875 66.6562 14.7095 66.6562 15.9688ZM66.6562 34.2188C66.6562 35.478 65.5503 36.5 64.1875 36.5H54.3125C52.9497 36.5 51.8438 35.478 51.8438 34.2188C51.8438 32.9595 52.9497 31.9375 54.3125 31.9375H64.1875C65.5503 31.9375 66.6562 32.9595 66.6562 34.2188ZM66.6562 25.0938C66.6562 26.353 65.5503 27.375 64.1875 27.375H54.3125C52.9497 27.375 51.8438 26.353 51.8438 25.0938C51.8438 23.8345 52.9497 22.8125 54.3125 22.8125H64.1875C65.5503 22.8125 66.6562 23.8345 66.6562 25.0938ZM66.6562 43.3438C66.6562 44.603 65.5503 45.625 64.1875 45.625H54.3125C52.9497 45.625 51.8438 44.603 51.8438 43.3438C51.8438 42.0845 52.9497 41.0625 54.3125 41.0625H64.1875C65.5503 41.0625 66.6562 42.0845 66.6562 43.3438Z" fill="white"/>
</g>
</svg>
