<svg width="103" height="106" viewBox="0 0 103 106" fill="none" xmlns="http://www.w3.org/2000/svg">
<g id="&#208;&#189;&#208;&#190;&#208;&#178;">
<path id="Vector" d="M69.3043 53V19.08C69.3043 18.6257 68.8629 18.1714 68.4214 18.1714H18.54C18.0986 18.1714 17.6571 18.6257 17.6571 19.08V81.0142C17.6571 84.8 20.6 87.6771 24.1314 87.6771H71.9529C70.3343 85.86 69.3043 83.5885 69.3043 81.0142V53ZM23.5428 39.22H40.17C41.0528 39.22 41.6414 39.8257 41.6414 40.7342C41.6414 41.6428 41.0528 42.2485 40.17 42.2485H23.5428C22.66 42.2485 22.0714 41.6428 22.0714 40.7342C22.0714 39.8257 22.66 39.22 23.5428 39.22ZM22.0714 32.4057C22.0714 31.4971 22.66 30.8914 23.5428 30.8914H40.17C41.0528 30.8914 41.6414 31.4971 41.6414 32.4057C41.6414 33.3142 41.0528 33.92 40.17 33.92H23.5428C22.66 33.92 22.0714 33.3142 22.0714 32.4057ZM23.5428 47.3971H40.17C41.0528 47.3971 41.6414 48.0028 41.6414 48.9114C41.6414 49.82 41.0528 50.4257 40.17 50.4257H23.5428C22.66 50.4257 22.0714 49.82 22.0714 48.9114C22.0714 48.0028 22.66 47.3971 23.5428 47.3971ZM23.5428 55.5742H40.17C41.0528 55.5742 41.6414 56.18 41.6414 57.0885C41.6414 57.9971 41.0528 58.6028 40.17 58.6028H23.5428C22.66 58.6028 22.0714 57.9971 22.0714 57.0885C22.0714 56.18 22.66 55.5742 23.5428 55.5742ZM63.4186 83.2857H23.5428C22.66 83.2857 22.0714 82.68 22.0714 81.7714C22.0714 80.8628 22.66 80.2571 23.5428 80.2571H63.4186C64.3014 80.2571 64.89 80.8628 64.89 81.7714C64.89 82.68 64.3014 83.2857 63.4186 83.2857ZM63.4186 75.1085H23.5428C22.66 75.1085 22.0714 74.5028 22.0714 73.5942C22.0714 72.6857 22.66 72.08 23.5428 72.08H63.4186C64.3014 72.08 64.89 72.6857 64.89 73.5942C64.89 74.5028 64.3014 75.1085 63.4186 75.1085ZM63.4186 66.78H23.5428C22.66 66.78 22.0714 66.1742 22.0714 65.2657C22.0714 64.3571 22.66 63.7514 23.5428 63.7514H63.4186C64.3014 63.7514 64.89 64.3571 64.89 65.2657C64.89 66.1742 64.3014 66.78 63.4186 66.78ZM64.89 57.0885C64.89 57.9971 64.3014 58.6028 63.4186 58.6028H47.5271C46.6443 58.6028 46.0557 57.9971 46.0557 57.0885V32.4057C46.0557 31.4971 46.6443 30.8914 47.5271 30.8914H63.4186C64.3014 30.8914 64.89 31.4971 64.89 32.4057V57.0885ZM63.4186 25.7428H23.5428C22.66 25.7428 22.0714 25.1371 22.0714 24.2285C22.0714 23.32 22.66 22.7142 23.5428 22.7142H63.4186C64.3014 22.7142 64.89 23.32 64.89 24.2285C64.89 25.1371 64.3014 25.7428 63.4186 25.7428ZM72.2471 54.5142V81.1657C72.2471 84.9514 75.19 87.8285 78.7214 87.8285C82.4 87.8285 85.1957 84.8 85.1957 81.1657V54.5142H72.2471Z" fill="white"/>
</g>
</svg>
