<svg width="90" height="88" viewBox="0 0 90 88" fill="none" xmlns="http://www.w3.org/2000/svg">
<g id="&#209;&#128;&#209;&#131;&#208;&#186;" clip-path="url(#clip0_2_65)">
<g id="Clip path group">
<mask id="mask0_2_65" style="mask-type:luminance" maskUnits="userSpaceOnUse" x="0" y="0" width="90" height="88">
<g id="a">
<path id="Vector" d="M0 0H90V88H0V0Z" fill="white"/>
</g>
</mask>
<g mask="url(#mask0_2_65)">
<g id="Group">
<path id="Vector_2" d="M87.1792 38.6089C87.1792 38.6089 88.7258 36.1935 86.1039 35.0009C83.4821 33.8106 82.5916 36.5247 82.5916 36.5247L76.9334 48.4325C76.5995 48.0527 75.2637 47.2375 74.8824 46.8786L82.7337 30.3531C82.7337 30.3531 84.2803 27.9354 81.6561 26.7428C79.0366 25.5525 78.1437 28.2666 78.1437 28.2666L70.7566 43.8078C70.3445 43.5786 69.2668 43.0506 68.8334 42.8259L77.3976 24.8091C77.3976 24.8091 78.9418 22.3914 76.32 21.2011C73.7005 20.0085 72.81 22.7226 72.81 22.7226L64.2387 40.7371C63.7816 40.5565 62.3534 39.9636 61.8987 39.8038L69.9039 22.9611C69.9039 22.9611 71.4458 20.5457 68.8263 19.3554C66.2045 18.1628 65.3139 20.8746 65.3139 20.8746L56.8468 38.6807L56.1695 40.1095L55.8663 40.7487C63.7389 44.3243 66.4934 53.7565 63.4453 60.1643C62.8366 61.4472 60.66 60.859 60.66 60.859C64.3168 53.1683 61.5079 45.6535 53.64 42.0803L53.9787 31.5527C53.9787 31.5527 54.2961 28.7436 51.4232 28.431C48.5455 28.1207 48.2305 30.932 48.2305 30.932L47.025 38.3032C46.5442 41.2257 46.0042 44.1506 45.1066 46.9782C43.8736 50.8981 44.1333 55.1219 45.8377 58.8692C47.5421 62.6165 50.5761 65.634 54.3789 67.3641C58.5529 69.2592 63.3257 69.4564 67.6482 67.9122C71.9708 66.368 75.4894 63.2089 77.4308 59.1291L78.0395 57.8415L87.1792 38.6089Z" fill="white"/>
<path id="Vector_3" d="M2.82316 38.6089C2.82316 38.6089 1.27421 36.1935 3.89605 35.0009C6.52026 33.8105 7.40842 36.5246 7.40842 36.5246L13.0689 48.4324C13.4005 48.0526 14.7387 47.2375 15.12 46.8785L7.26868 30.3531C7.26868 30.3531 5.71974 27.9354 8.34631 26.7427C10.9658 25.5524 11.8563 28.2665 11.8563 28.2665L19.2434 43.8078C19.6579 43.5785 20.7355 43.0505 21.1689 42.8259L12.6024 24.8091C12.6024 24.8091 11.0582 22.3914 13.68 21.2011C16.3018 20.0084 17.1924 22.7225 17.1924 22.7225L25.7613 40.7371C26.2184 40.5564 27.6489 39.9636 28.1013 39.8038L20.0961 22.9611C20.0961 22.9611 18.5542 20.5457 21.1761 19.3554C23.7979 18.1627 24.6884 20.8745 24.6884 20.8745L33.1532 38.6806L33.8305 40.1095L34.1337 40.7486C26.2634 44.3242 23.5089 53.7564 26.5547 60.1642C27.1658 61.4472 29.3424 60.859 29.3424 60.859C25.6855 53.1682 28.4921 45.6535 36.36 42.0802L36.0237 31.5526C36.0237 31.5526 35.7039 28.7436 38.5768 28.431C41.4545 28.1206 41.7718 30.932 41.7718 30.932L42.975 38.3032C43.4558 41.2257 43.9982 44.1505 44.8958 46.9781C46.1903 51.088 45.8408 55.5251 43.9179 59.3927C41.995 63.2603 38.6421 66.2698 34.5369 67.813C30.4317 69.3561 25.8805 69.3179 21.803 67.7059C17.7256 66.0939 14.4262 63.0284 12.5716 59.1291L11.9629 57.8415L2.82316 38.6089Z" fill="white"/>
</g>
</g>
</g>
</g>
<defs>
<clipPath id="clip0_2_65">
<rect width="90" height="88" fill="white"/>
</clipPath>
</defs>
</svg>
